<?xml version="1.0" standalone="no"?>
<!DOCTYPE svg PUBLIC "-//W3C//DTD SVG 1.1//EN" "http://www.w3.org/Graphics/SVG/1.1/DTD/svg11.dtd">
<svg xmlns="http://www.w3.org/2000/svg" width="226" height="109" viewBox="0 0 226 109" fill="none">
<g clip-path="url(#clip0_153_4)">
<path d="M-0.000312805 21.6601C0.0996872 21.0501 0.219688 20.4401 0.279688 19.8201C0.532706 16.4176 1.51494 13.1094 3.15969 10.1201C5.61587 5.85636 9.64893 2.72831 14.3897 1.4101C16.5631 0.751175 18.8107 0.368171 21.0797 0.270102C22.2497 0.220102 23.4297 0.180105 24.6097 0.180105C29.4497 0.180105 34.2897 0.180105 39.1297 0.180105C42.0012 0.164693 44.859 0.575847 47.6097 1.40011C52.4411 2.75295 56.5378 5.96846 58.9997 10.3401C60.4144 12.9232 61.3176 15.7549 61.6597 18.6801C61.9862 21.7855 62.0731 24.9114 61.9197 28.0301C61.9485 28.3933 61.8967 28.7583 61.7679 29.0991C61.6391 29.4399 61.4365 29.748 61.1746 30.0012C60.9127 30.2545 60.5981 30.4467 60.2532 30.5641C59.9083 30.6814 59.5417 30.7211 59.1797 30.6801H46.6797C46.342 30.7133 46.0012 30.6762 45.6786 30.5713C45.3559 30.4664 45.0585 30.2959 44.8049 30.0705C44.5513 29.8451 44.3471 29.5697 44.2051 29.2616C44.0631 28.9535 43.9863 28.6193 43.9797 28.2801C43.9598 27.9804 43.9598 27.6798 43.9797 27.3801C43.9797 25.9901 43.9797 24.6001 43.9797 23.2201C43.9565 22.1311 43.7815 21.0507 43.4597 20.0101C43.2184 19.1111 42.7419 18.2926 42.0793 17.6387C41.4167 16.9849 40.5919 16.5194 39.6897 16.2901C38.8498 16.0275 37.979 15.8762 37.0997 15.8401C33.1397 15.7934 29.183 15.7934 25.2297 15.8401C24.326 15.8771 23.4313 16.0352 22.5697 16.3101C21.5235 16.6 20.5861 17.192 19.8746 18.012C19.1631 18.832 18.7092 19.8435 18.5697 20.9201C18.3761 21.9085 18.2757 22.9129 18.2697 23.9201C18.2697 38.5201 18.2697 53.1201 18.2697 67.7201C18.2763 68.7263 18.37 69.7301 18.5497 70.7201C18.7149 71.9723 19.2885 73.1351 20.1816 74.0282C21.0747 74.9213 22.2375 75.4949 23.4897 75.6601C24.3763 75.8329 25.2765 75.9266 26.1797 75.9401C29.4897 75.9401 32.7997 75.9401 36.1097 75.9401C37.4702 75.9518 38.8228 75.732 40.1097 75.2901C40.8356 75.0421 41.4969 74.6351 42.0454 74.0987C42.5938 73.5624 43.0155 72.9103 43.2797 72.1901C43.7398 70.9759 43.9769 69.6886 43.9797 68.3901C43.9797 65.1501 43.9797 61.9101 43.9797 58.6701C43.9797 57.4901 43.5197 57.0201 42.3397 57.0201C39.5797 57.0201 36.8297 57.0201 34.0697 57.0201C33.5873 57.0206 33.1069 56.9602 32.6397 56.8401C32.2312 56.7717 31.854 56.5781 31.5603 56.2861C31.2665 55.9941 31.0706 55.6182 30.9997 55.2101C30.8994 54.8316 30.849 54.4416 30.8497 54.0501C30.8497 50.8101 30.8497 47.5701 30.8497 44.3301C30.8497 44.2201 30.8497 44.1001 30.8497 43.9901C30.837 43.6457 30.8956 43.3024 31.0219 42.9818C31.1482 42.6611 31.3395 42.3701 31.5836 42.1269C31.8278 41.8836 32.1196 41.6935 32.4407 41.5685C32.7618 41.4434 33.1054 41.3861 33.4497 41.4001H58.5297C58.8984 41.3949 59.2667 41.425 59.6297 41.4901C60.2592 41.5588 60.8414 41.8566 61.2656 42.3269C61.6897 42.7971 61.9261 43.4069 61.9297 44.0401C61.9297 44.3901 61.9297 44.7301 61.9297 45.0401V68.2201C61.9872 71.2642 61.5792 74.2993 60.7197 77.2201C58.5497 84.1301 53.9097 88.5001 46.9797 90.4801C44.3727 91.1851 41.68 91.5217 38.9797 91.4801C33.4697 91.4801 27.9797 91.4801 22.4497 91.4801C19.1323 91.5069 15.839 90.9134 12.7397 89.7301C9.869 88.6745 7.30255 86.928 5.26716 84.645C3.23178 82.3619 1.79015 79.6126 1.06969 76.6401C0.612464 74.9657 0.317767 73.2511 0.189688 71.5201C0.127283 71.0393 0.0405041 70.5621 -0.0703125 70.0901L-0.000312805 21.6601Z" fill="#FFFFFF"/>
<path d="M212.801 108.42C212.801 108 212.801 107.59 212.801 107.17C212.801 103.8 212.801 100.43 212.801 97.0503C212.812 96.7919 212.76 96.5348 212.651 96.3003C212.561 96.5003 212.461 96.6903 212.371 96.8903C211.251 99.5037 210.138 102.114 209.031 104.72C208.881 105.06 208.751 105.33 208.301 105.32C207.851 105.31 207.671 105.32 207.421 104.74C206.271 102.1 205.131 99.4503 203.981 96.8003C203.911 96.6403 203.831 96.4703 203.741 96.2403C203.661 96.344 203.605 96.4642 203.577 96.5923C203.55 96.7203 203.551 96.8528 203.581 96.9803C203.581 100.36 203.581 103.73 203.581 107.1C203.581 107.54 203.581 107.98 203.581 108.42H202.741C202.683 108.201 202.642 107.977 202.621 107.75C202.621 103.537 202.621 99.327 202.621 95.1203C202.621 94.9603 202.621 94.8003 202.621 94.6003H204.001C205.341 97.7003 206.691 100.85 208.121 104.18C209.571 100.89 210.881 97.7303 212.271 94.5703H213.701C213.701 94.8003 213.751 95.0003 213.751 95.2003C213.751 99.3603 213.751 103.52 213.751 107.68C213.727 107.93 213.684 108.177 213.621 108.42H212.801Z" fill="#FFFFFF"/>
<path d="M190.578 108.42V94.59C190.828 94.59 191.028 94.54 191.228 94.54H196.088C196.483 94.5032 196.88 94.5536 197.253 94.6877C197.626 94.8218 197.964 95.0363 198.245 95.3159C198.525 95.5955 198.741 95.9334 198.876 96.3057C199.012 96.678 199.064 97.0755 199.028 97.47C199.028 100.08 199.028 102.7 199.028 105.31C199.092 105.973 198.911 106.637 198.518 107.175C198.126 107.713 197.549 108.089 196.898 108.23C196.768 108.28 196.658 108.36 196.538 108.42H190.578ZM191.578 107.28C191.691 107.327 191.808 107.36 191.928 107.38C193.318 107.38 194.708 107.38 196.088 107.38C196.349 107.398 196.61 107.357 196.853 107.26C197.096 107.164 197.314 107.014 197.491 106.822C197.669 106.631 197.801 106.401 197.878 106.152C197.956 105.902 197.976 105.639 197.938 105.38C197.938 102.747 197.938 100.113 197.938 97.48C197.968 97.2057 197.935 96.9283 197.842 96.6686C197.748 96.409 197.597 96.174 197.4 95.9813C197.202 95.7887 196.963 95.6434 196.702 95.5566C196.44 95.4697 196.162 95.4435 195.888 95.48H192.198C192.007 95.4903 191.816 95.5137 191.628 95.55L191.578 107.28Z" fill="#FFFFFF"/>
<path d="M219.748 108.42C219.62 108.329 219.478 108.258 219.328 108.21C218.714 108.063 218.171 107.703 217.796 107.195C217.42 106.686 217.237 106.061 217.278 105.43C217.278 103.92 217.278 102.43 217.278 100.92V97.5204C217.239 97.1168 217.29 96.7096 217.428 96.3281C217.565 95.9465 217.784 95.6 218.071 95.3133C218.358 95.0266 218.704 94.8068 219.086 94.6698C219.467 94.5327 219.875 94.4817 220.278 94.5204C221.278 94.5204 222.278 94.5204 223.198 94.5204C223.608 94.5117 224.014 94.5975 224.385 94.7709C224.756 94.9443 225.082 95.2007 225.338 95.5204C225.677 95.9085 225.865 96.4053 225.868 96.9204V98.8004H224.928V97.6004C224.962 97.3107 224.93 97.0169 224.834 96.7415C224.738 96.4661 224.58 96.2162 224.373 96.0109C224.166 95.8056 223.914 95.6502 223.638 95.5565C223.362 95.4629 223.068 95.4334 222.778 95.4704C221.968 95.4704 221.158 95.4704 220.348 95.4704C220.086 95.4423 219.822 95.4716 219.572 95.5563C219.323 95.6411 219.095 95.7792 218.905 95.961C218.714 96.1429 218.566 96.3641 218.47 96.6092C218.374 96.8544 218.332 97.1176 218.348 97.3804C218.348 100.06 218.348 102.74 218.348 105.43C218.325 105.675 218.355 105.922 218.435 106.155C218.515 106.388 218.643 106.601 218.811 106.781C218.979 106.96 219.184 107.102 219.411 107.197C219.638 107.292 219.882 107.337 220.128 107.33C221.127 107.388 222.129 107.388 223.128 107.33C223.361 107.331 223.592 107.284 223.807 107.192C224.021 107.101 224.215 106.967 224.377 106.799C224.539 106.631 224.664 106.432 224.747 106.214C224.83 105.996 224.868 105.763 224.858 105.53C224.858 105.05 224.858 104.53 224.858 104.04H225.768C225.833 104.812 225.833 105.588 225.768 106.36C225.687 106.773 225.494 107.156 225.21 107.467C224.926 107.777 224.562 108.003 224.158 108.12C223.928 108.2 223.708 108.32 223.488 108.42H219.748Z" fill="#FFFFFF"/>
<path d="M157.061 20.5897C157.511 20.7297 157.941 20.8297 158.351 20.9797C159.403 21.317 160.338 21.9464 161.046 22.7944C161.754 23.6425 162.207 24.6743 162.351 25.7697C162.447 26.3177 162.494 26.8732 162.491 27.4297C162.491 29.5297 162.551 31.6396 162.341 33.7296C162.247 35.2184 161.77 36.6576 160.955 37.907C160.14 39.1565 159.016 40.1737 157.691 40.8596C156.417 41.523 155.023 41.9242 153.591 42.0396C152.731 42.1196 151.881 42.1397 151.021 42.1497H136.001C135.7 42.1529 135.399 42.1363 135.101 42.0997C134.841 42.0832 134.596 41.9725 134.412 41.7884C134.228 41.6043 134.117 41.3595 134.101 41.0997C134.086 40.8933 134.086 40.686 134.101 40.4796V1.51965C134.101 0.519653 134.501 0.139648 135.511 0.139648H151.801C153.003 0.146136 154.199 0.324624 155.351 0.669662C156.984 1.11286 158.451 2.02405 159.572 3.29097C160.693 4.55789 161.419 6.12516 161.661 7.79965C161.838 8.78986 161.929 9.79369 161.931 10.7997C161.971 12.0937 161.941 13.3889 161.841 14.6797C161.759 15.925 161.314 17.1193 160.563 18.1158C159.812 19.1124 158.786 19.8679 157.611 20.2897L157.111 20.5097C157.111 20.5097 157.091 20.5097 157.061 20.5897ZM147.121 23.8797H143.301C142.551 23.8797 142.381 24.0697 142.371 24.8797V34.5897C142.365 34.754 142.421 34.9145 142.529 35.0388C142.637 35.1631 142.787 35.242 142.951 35.2596C143.18 35.2795 143.411 35.2795 143.641 35.2596C145.751 35.2596 147.851 35.2596 149.961 35.2596C150.54 35.2598 151.118 35.2197 151.691 35.1396C152.419 35.1049 153.106 34.7976 153.618 34.2788C154.129 33.76 154.427 33.0677 154.451 32.3397C154.471 32.0634 154.471 31.7859 154.451 31.5096C154.451 30.1896 154.451 28.8797 154.451 27.5097C154.451 27.2497 154.451 26.9996 154.451 26.7496C154.43 26.0577 154.16 25.3966 153.689 24.8891C153.218 24.3815 152.579 24.062 151.891 23.9897C151.389 23.9029 150.88 23.8561 150.371 23.8497C149.301 23.8697 148.211 23.8797 147.121 23.8797ZM147.001 7.05966V6.98965H143.671C143.484 6.97967 143.297 6.97967 143.111 6.98965C142.601 7.04965 142.431 7.22965 142.391 7.73965C142.391 7.84965 142.391 7.96965 142.391 8.07965V16.0797C142.391 16.2197 142.391 16.3597 142.391 16.4897C142.388 16.578 142.403 16.666 142.435 16.7484C142.467 16.8308 142.515 16.9059 142.577 16.9693C142.639 17.0328 142.712 17.0832 142.794 17.1176C142.875 17.152 142.962 17.1697 143.051 17.1697C143.187 17.1798 143.324 17.1798 143.461 17.1697H149.911C150.33 17.1682 150.748 17.1314 151.161 17.0597C151.825 16.9969 152.448 16.707 152.923 16.2389C153.398 15.7707 153.698 15.1529 153.771 14.4897C153.991 12.8838 153.991 11.2555 153.771 9.64966C153.719 9.04319 153.467 8.47119 153.054 8.02394C152.641 7.57669 152.091 7.27964 151.491 7.17966C151.246 7.11458 150.994 7.07438 150.741 7.05966C149.481 7.04966 148.231 7.05966 147.001 7.05966Z" fill="#FFFFFF"/>
<path d="M127.368 70.56V51.42C127.368 49.87 127.638 49.6 129.178 49.6H145.078C146.329 49.59 147.575 49.7584 148.778 50.1C150.477 50.5171 152.014 51.4301 153.193 52.7229C154.372 54.0156 155.139 55.6298 155.398 57.36C155.574 58.293 155.661 59.2406 155.658 60.19C155.658 67.19 155.658 74.11 155.658 81.07C155.675 82.4247 155.483 83.774 155.088 85.07C154.612 86.6672 153.694 88.0971 152.439 89.1942C151.184 90.2914 149.645 91.0111 147.998 91.27C147.047 91.4653 146.079 91.5658 145.108 91.57C139.718 91.57 134.328 91.57 128.938 91.57C128.752 91.5802 128.565 91.5802 128.378 91.57C128.113 91.57 127.859 91.4647 127.671 91.2771C127.484 91.0896 127.378 90.8352 127.378 90.57C127.358 90.2937 127.358 90.0163 127.378 89.74L127.368 70.56ZM135.658 70.56V83.12C135.658 83.33 135.658 83.54 135.658 83.75C135.658 84.19 135.858 84.36 136.298 84.41C136.458 84.42 136.619 84.42 136.778 84.41H143.448C143.819 84.4133 144.19 84.3966 144.558 84.36C145.239 84.348 145.891 84.0851 146.389 83.6219C146.887 83.1586 147.197 82.5276 147.258 81.85C147.338 81.4652 147.379 81.0731 147.378 80.68C147.378 73.9467 147.378 67.2167 147.378 60.49C147.375 60.0058 147.321 59.5232 147.218 59.05C147.124 58.5038 146.857 58.0019 146.458 57.6171C146.059 57.2324 145.548 56.9847 144.998 56.91C144.43 56.813 143.855 56.7661 143.278 56.77C141.148 56.77 139.018 56.77 136.888 56.77C135.738 56.77 135.658 56.85 135.658 57.98V70.56Z" fill="#FFFFFF"/>
<path d="M211.279 91.6204H207.459C206.231 91.6337 205.009 91.4687 203.829 91.1304C202.109 90.6996 200.554 89.7702 199.36 88.459C198.166 87.1478 197.387 85.5132 197.119 83.7604C196.878 82.3675 196.79 80.9523 196.859 79.5404C196.859 78.6904 197.249 78.2904 198.099 78.2804C200.019 78.2804 201.939 78.2804 203.859 78.2804C204.769 78.2804 205.099 78.7104 205.139 79.6504C205.147 80.3664 205.2 81.0811 205.299 81.7904C205.344 82.4349 205.62 83.0416 206.075 83.5003C206.53 83.959 207.135 84.2393 207.779 84.2904C208.163 84.3753 208.555 84.4256 208.949 84.4404C210.469 84.4404 211.999 84.4404 213.529 84.4404C213.922 84.42 214.313 84.3698 214.699 84.2904C215.332 84.2005 215.92 83.9104 216.377 83.4624C216.834 83.0144 217.136 82.432 217.239 81.8004C217.441 80.7057 217.485 79.5875 217.369 78.4804C217.322 77.9941 217.161 77.5258 216.899 77.1138C216.636 76.7018 216.28 76.3579 215.859 76.1104C214.864 75.4654 213.729 75.0709 212.549 74.9604C210.267 74.7545 208.004 74.3768 205.779 73.8304C204.779 73.5804 203.829 73.2604 202.859 72.9704C201.763 72.6217 200.756 72.041 199.905 71.2679C199.054 70.4948 198.38 69.5475 197.929 68.4904C197.245 67.0155 196.874 65.4154 196.839 63.7904C196.839 62.2904 196.789 60.7904 196.839 59.2804C196.864 57.6556 197.261 56.0583 197.999 54.6104C198.666 53.345 199.624 52.2558 200.794 51.4319C201.964 50.6081 203.312 50.0729 204.729 49.8704C205.72 49.702 206.723 49.615 207.729 49.6104C209.969 49.6104 212.219 49.6104 214.459 49.6104C215.71 49.6086 216.955 49.7803 218.159 50.1204C219.893 50.5489 221.457 51.4897 222.649 52.8204C223.84 54.151 224.603 55.8098 224.839 57.5804C225.031 58.9048 225.118 60.2423 225.099 61.5804C225.099 62.5304 224.679 62.9004 223.709 62.9004H218.219C217.219 62.9004 216.889 62.5304 216.829 61.5104C216.799 60.6815 216.709 59.856 216.559 59.0404C216.476 58.54 216.238 58.0781 215.88 57.7194C215.521 57.3607 215.059 57.1233 214.559 57.0404C213.955 56.8944 213.339 56.8073 212.719 56.7804C211.539 56.7804 210.349 56.7304 209.179 56.7804C208.53 56.8068 207.886 56.904 207.259 57.0704C206.813 57.1671 206.405 57.3888 206.08 57.7093C205.756 58.0298 205.53 58.436 205.429 58.8804C205.254 59.6443 205.134 60.4195 205.069 61.2004C205.029 61.803 205.029 62.4077 205.069 63.0104C205.076 63.5462 205.233 64.0695 205.521 64.5216C205.808 64.9736 206.216 65.3367 206.699 65.5704C207.79 66.1353 208.991 66.4561 210.219 66.5104C213.38 66.7546 216.498 67.3963 219.499 68.4204C220.87 68.8952 222.104 69.7013 223.09 70.7671C224.075 71.833 224.782 73.1256 225.149 74.5304C225.404 75.3967 225.562 76.2889 225.619 77.1904C225.836 79.3319 225.782 81.4923 225.459 83.6204C225.186 85.5505 224.3 87.3419 222.932 88.7302C221.563 90.1184 219.785 91.03 217.859 91.3304C216.926 91.4884 215.984 91.582 215.039 91.6104C213.779 91.6604 212.529 91.6204 211.279 91.6204Z" fill="#FFFFFF"/>
<path d="M100.48 66.7897C100.48 71.5297 100.48 76.2698 100.48 81.0198C100.502 82.199 100.367 83.3759 100.08 84.5198C99.6862 86.2498 98.7832 87.8222 97.4874 89.0342C96.1916 90.2462 94.5624 91.0423 92.81 91.3197C91.8807 91.5014 90.9368 91.5984 89.99 91.6097C87.4 91.6097 84.81 91.6097 82.21 91.6097C80.9835 91.6209 79.7615 91.4593 78.58 91.1298C76.8652 90.7202 75.3155 89.7988 74.1367 88.4878C72.9578 87.1768 72.2057 85.5383 71.98 83.7897C71.8092 82.799 71.7256 81.7951 71.73 80.7897C71.73 70.9764 71.73 61.1664 71.73 51.3597C71.715 51.13 71.715 50.8995 71.73 50.6697C71.7311 50.5183 71.7629 50.3687 71.8235 50.2299C71.8842 50.0912 71.9723 49.9661 72.0826 49.8623C72.1929 49.7586 72.3231 49.6783 72.4653 49.6263C72.6075 49.5743 72.7588 49.5516 72.91 49.5598H78.4C78.6062 49.5396 78.8138 49.5396 79.02 49.5598C79.2798 49.5763 79.5247 49.6869 79.7087 49.871C79.8928 50.0551 80.0035 50.3 80.02 50.5598C80.02 50.7898 80.02 51.0197 80.02 51.2597V79.7798C80.0082 80.4256 80.0517 81.0713 80.15 81.7098C80.2011 82.4259 80.5254 83.095 81.0558 83.5789C81.5862 84.0628 82.2822 84.3244 83 84.3098C83.27 84.3098 83.55 84.3098 83.83 84.3098C85.36 84.3098 86.83 84.3098 88.41 84.3098C88.8971 84.3182 89.3835 84.2712 89.86 84.1697C90.4646 84.0878 91.0222 83.7989 91.4378 83.3522C91.8535 82.9056 92.1016 82.3287 92.14 81.7198C92.2118 81.1961 92.2485 80.6683 92.25 80.1397V51.3398C92.235 51.0833 92.235 50.8262 92.25 50.5697C92.2499 50.2884 92.3595 50.0182 92.5556 49.8165C92.7517 49.6148 93.0188 49.4976 93.3 49.4898C93.483 49.4748 93.667 49.4748 93.85 49.4898H98.85C99.1285 49.4994 99.4059 49.5295 99.68 49.5798C99.8872 49.6137 100.077 49.7175 100.217 49.874C100.357 50.0304 100.439 50.2301 100.45 50.4398C100.465 50.7162 100.465 50.9933 100.45 51.2698C100.49 56.5198 100.48 61.6497 100.48 66.7897Z" fill="#FFFFFF"/>
<path d="M187.181 33.5898H174.431C174.351 33.8698 174.261 34.1498 174.191 34.4398L172.511 41.0898C172.301 41.9098 172.011 42.1398 171.051 42.1498H166.191C165.801 42.1498 165.401 42.1498 165.011 42.1498C164.191 42.1498 163.931 41.7698 164.131 40.9698C164.571 39.2198 165.041 37.4798 165.501 35.7398L174.351 2.07978C174.351 1.91978 174.431 1.76978 174.481 1.60978C174.55 1.18056 174.777 0.792679 175.117 0.522472C175.458 0.252265 175.887 0.119316 176.321 0.149792C179.321 0.149792 182.321 0.149792 185.321 0.149792C186.431 0.149792 186.851 0.569784 187.181 1.82978L191.441 18.0498C193.441 25.5565 195.414 33.0665 197.361 40.5798C197.711 41.8898 197.491 42.1598 196.141 42.1598H190.521C189.521 42.1598 189.281 41.9398 189.041 40.9698C188.481 38.6798 187.901 36.3898 187.321 34.1098C187.311 33.9398 187.251 33.7898 187.181 33.5898ZM180.901 8.01979H180.691C179.131 14.2998 177.561 20.5698 175.991 26.8798H185.701C184.141 20.6398 182.601 14.4698 181.051 8.28979C181.015 8.19257 180.964 8.10148 180.901 8.01979Z" fill="#FFFFFF"/>
<path d="M164.65 70.6101C164.65 64.2501 164.65 57.8901 164.65 51.5301C164.643 51.1957 164.663 50.8613 164.71 50.5301C164.727 50.2772 164.841 50.0404 165.026 49.8678C165.212 49.6951 165.456 49.5995 165.71 49.6001C165.943 49.5799 166.177 49.5799 166.41 49.6001C173.3 49.6001 180.2 49.6001 187.1 49.6001C188.64 49.6001 188.76 50.25 188.77 51.23C188.77 52.55 188.77 53.8601 188.77 55.1801C188.77 55.3882 188.75 55.5959 188.71 55.8001C188.694 56.0759 188.572 56.3348 188.368 56.5216C188.164 56.7084 187.896 56.8083 187.62 56.8001C187.433 56.8101 187.246 56.8101 187.06 56.8001H174.36C174.15 56.8001 173.94 56.8001 173.73 56.8001C173.21 56.8001 173.01 57.0601 172.98 57.6001C172.974 57.6933 172.974 57.7868 172.98 57.8801V65.7201C172.98 66.5701 173.19 66.7801 174.05 66.7801H185.05C185.97 66.7801 186.32 67.1601 186.36 68.1001C186.36 68.3801 186.36 68.6601 186.36 68.9301C186.36 70.0434 186.36 71.1534 186.36 72.26C186.36 73.59 186.05 73.9101 184.73 73.9101H174.32C174.09 73.8949 173.859 73.8949 173.63 73.9101C173.536 73.9098 173.443 73.9289 173.357 73.9662C173.271 74.0034 173.194 74.058 173.13 74.1266C173.066 74.1951 173.017 74.2761 172.986 74.3644C172.955 74.4528 172.943 74.5466 172.95 74.6401C172.95 74.7701 172.95 74.9101 172.95 75.0501V83.3101C172.95 83.4501 172.95 83.5901 172.95 83.7201C172.95 84.1901 173.18 84.3901 173.64 84.4301C173.85 84.4301 174.06 84.4301 174.27 84.4301H186.9C188.43 84.4301 188.73 84.7301 188.74 86.2501C188.74 87.4301 188.74 88.61 188.74 89.79V90.1301C188.68 91.2701 188.35 91.6001 187.2 91.6001H165.75C165.493 91.6004 165.246 91.5019 165.06 91.3251C164.873 91.1482 164.762 90.9065 164.75 90.6501C164.703 90.3188 164.683 89.9845 164.69 89.6501C164.663 83.3167 164.65 76.9701 164.65 70.6101Z" fill="#FFFFFF"/>
<path d="M201.57 21.0299V1.87988C201.57 0.409883 201.84 0.129883 203.3 0.129883H208.3C209.52 0.129883 209.85 0.479879 209.85 1.71988V33.9199C209.85 34.7299 210.02 34.9199 210.85 34.9199H224.11C224.365 34.9229 224.619 34.9463 224.87 34.9899C225.077 35.025 225.267 35.124 225.414 35.2729C225.561 35.4218 225.658 35.6131 225.69 35.8199C225.736 36.0705 225.756 36.3252 225.75 36.5799V40.5299C225.765 40.7396 225.765 40.9502 225.75 41.1599C225.739 41.3921 225.646 41.613 225.489 41.7846C225.332 41.9561 225.121 42.0676 224.89 42.0999C224.643 42.1484 224.392 42.1718 224.14 42.1699H203.26C201.91 42.1699 201.57 41.8199 201.57 40.4899V21.0299Z" fill="#FFFFFF"/>
<path d="M72.0596 21.2103V2.03031C72.0444 1.7772 72.0444 1.52341 72.0596 1.2703C72.049 1.11834 72.0714 0.96589 72.1251 0.823342C72.1788 0.680795 72.2626 0.551491 72.3708 0.444253C72.479 0.337014 72.609 0.254365 72.752 0.201913C72.8951 0.149461 73.0477 0.128437 73.1996 0.140298C73.4996 0.140298 73.7996 0.140298 74.0996 0.140298H78.6796C78.9093 0.125109 79.1398 0.125109 79.3696 0.140298C79.5911 0.165045 79.7981 0.263123 79.9575 0.418938C80.1169 0.574754 80.2197 0.77937 80.2496 1.0003C80.2997 1.3647 80.3198 1.73261 80.3096 2.1003V33.4603C80.3096 34.8403 80.3096 34.8803 81.6996 34.8803H92.1096C93.2296 34.8803 93.5996 35.2603 93.6096 36.3903C93.6096 37.8203 93.6096 39.2503 93.6096 40.6903C93.6096 41.6903 93.2396 42.1103 92.1896 42.1203C90.6396 42.1203 89.0896 42.1203 87.5396 42.1203H73.9996C73.7465 42.1354 73.4927 42.1354 73.2396 42.1203C73.0756 42.13 72.9114 42.1038 72.7585 42.0435C72.6057 41.9833 72.4678 41.8904 72.3545 41.7714C72.2412 41.6524 72.1553 41.5102 72.1026 41.3545C72.0499 41.1989 72.0318 41.0336 72.0496 40.8703C72.0496 40.6203 72.0496 40.3603 72.0496 40.1103L72.0596 21.2103Z" fill="#FFFFFF"/>
<path d="M117.911 70.5903V89.6803C117.926 89.9567 117.926 90.2338 117.911 90.5102C117.91 90.6622 117.878 90.8122 117.817 90.9512C117.755 91.0902 117.666 91.2151 117.555 91.3183C117.443 91.4214 117.312 91.5005 117.168 91.5507C117.025 91.6009 116.873 91.6212 116.721 91.6103C116.491 91.6103 116.261 91.6103 116.031 91.6103H111.381C111.171 91.6103 110.961 91.6103 110.751 91.6103C110.479 91.6087 110.217 91.5051 110.017 91.3201C109.817 91.135 109.694 90.8817 109.671 90.6103C109.651 90.3573 109.651 90.1032 109.671 89.8503V51.3403C109.671 49.9103 109.981 49.6003 111.431 49.6003H116.291C116.478 49.5903 116.665 49.5903 116.851 49.6003C117.133 49.6052 117.402 49.7178 117.602 49.915C117.803 50.1122 117.921 50.3789 117.931 50.6603C117.951 50.9599 117.951 51.2606 117.931 51.5603L117.911 70.5903Z" fill="#FFFFFF"/>
<path d="M111.529 1.08986C107.525 1.05021 103.599 2.20163 100.25 4.39789C96.9018 6.59414 94.2816 9.7361 92.7226 13.4247C91.1636 17.1132 90.7361 21.182 91.4944 25.114C92.2527 29.0461 94.1626 32.664 96.9815 35.5083C99.8004 38.3526 103.401 40.2948 107.326 41.0883C111.251 41.8818 115.324 41.4908 119.026 39.9649C122.728 38.439 125.894 35.847 128.12 32.5183C130.346 29.1896 131.533 25.2744 131.529 21.2698C131.511 15.9544 129.404 10.8591 125.662 7.08369C121.92 3.30827 116.844 1.15545 111.529 1.08986ZM108.079 37.0899C107.851 37.8783 107.776 38.7032 107.859 39.5199C107.889 39.7422 107.889 39.9676 107.859 40.1899C104.445 39.6044 101.256 38.0969 98.6371 35.8303C96.0181 33.5637 94.0684 30.6243 92.9989 27.3298C91.8265 23.7976 91.7015 20.0016 92.6389 16.3999C93.022 14.6778 93.7574 13.0537 94.7989 11.6299C95.2889 12.5199 95.7989 13.3499 95.3589 14.4599C95.1508 15.0795 95.1508 15.7502 95.3589 16.3699C95.4489 16.6999 95.5389 17.0299 95.6589 17.4499C95.789 17.5227 95.9128 17.6063 96.0289 17.6999C96.1589 17.8199 96.3289 17.9699 96.3489 18.1199C96.4451 18.46 96.562 18.794 96.6989 19.1199C96.8489 19.7299 97.3789 20.1199 97.5189 20.6699C97.5189 20.7599 97.6489 20.8299 97.7789 20.9899C97.675 20.3397 97.4065 19.727 96.9989 19.2099C96.8791 19.099 96.8047 18.9477 96.7899 18.7852C96.7751 18.6227 96.8211 18.4605 96.9189 18.3298C97.0059 18.4311 97.0861 18.538 97.1589 18.6499C97.4956 19.3208 97.9119 19.9486 98.3989 20.5198C98.6374 20.8322 98.8108 21.1893 98.9089 21.5699C98.9499 21.7997 99.0524 22.014 99.2056 22.1901C99.3589 22.3662 99.557 22.4975 99.7789 22.5699C100.203 22.744 100.616 22.941 101.019 23.1598C101.194 23.2521 101.392 23.2904 101.589 23.2698C101.709 23.226 101.84 23.2239 101.962 23.2638C102.084 23.3037 102.188 23.3833 102.259 23.4899C102.361 23.6428 102.498 23.7702 102.657 23.8621C102.817 23.954 102.995 24.008 103.179 24.0198C103.445 24.0371 103.7 24.1354 103.91 24.3016C104.119 24.4678 104.272 24.694 104.349 24.9499C104.447 25.1555 104.613 25.3214 104.819 25.4199C105.259 25.6699 105.729 25.8698 106.219 26.1098C106.27 26.013 106.326 25.9195 106.389 25.8298C106.418 25.7865 106.458 25.7511 106.504 25.7266C106.55 25.702 106.602 25.6892 106.654 25.6892C106.706 25.6892 106.758 25.702 106.804 25.7266C106.85 25.7511 106.89 25.7865 106.919 25.8298C106.95 25.8658 106.971 25.9097 106.979 25.9568C106.988 26.0039 106.983 26.0523 106.965 26.0967C106.948 26.1411 106.918 26.1799 106.88 26.2086C106.842 26.2374 106.796 26.2551 106.749 26.2599C106.239 26.4099 106.079 26.8699 105.839 27.2599C105.704 27.4743 105.648 27.7286 105.679 27.9799C105.713 28.2305 105.683 28.4856 105.592 28.7217C105.501 28.9577 105.352 29.1669 105.159 29.3298C104.978 29.6062 104.843 29.9102 104.759 30.2298C104.759 30.2998 104.879 30.4198 104.919 30.4798C104.849 30.7198 104.769 30.9399 104.729 31.1599C104.689 31.3799 104.969 31.5099 105.129 31.6599C105.312 31.8326 105.464 32.0356 105.579 32.2598C105.951 33.2004 106.666 33.9651 107.579 34.3999C107.778 34.4763 107.948 34.6146 108.063 34.7946C108.179 34.9746 108.233 35.1867 108.219 35.3999C108.269 35.9499 108.129 36.5198 108.079 37.0798V37.0899ZM129.489 16.7399C129.062 16.4708 128.716 16.0905 128.489 15.6398C128.433 15.4919 128.344 15.3585 128.229 15.2493C128.114 15.1402 127.977 15.0582 127.826 15.0093C127.675 14.9603 127.516 14.9458 127.359 14.9667C127.202 14.9875 127.051 15.0433 126.919 15.1299C126.469 15.3799 126.129 15.1299 125.749 15.1299L125.359 15.6199C125.228 15.7466 125.125 15.9001 125.059 16.0699C124.789 16.9475 124.316 17.7492 123.679 18.4098C123.446 18.6342 123.299 18.9326 123.262 19.2539C123.226 19.5751 123.302 19.899 123.479 20.1699C123.542 20.2761 123.58 20.3951 123.59 20.518C123.6 20.6409 123.583 20.7646 123.539 20.8799C123.397 21.1696 123.345 21.4957 123.392 21.8151C123.438 22.1346 123.58 22.4326 123.799 22.6699C124.268 23.2655 124.787 23.8207 125.349 24.3298C125.4 24.3765 125.46 24.4114 125.526 24.4321C125.591 24.4528 125.661 24.4589 125.729 24.4499C126.379 24.3399 127.039 24.2399 127.729 24.0899C128.419 23.9399 128.889 24.3498 128.729 25.0198C128.645 25.4037 128.677 25.8037 128.819 26.1699C128.982 26.5398 129.054 26.9433 129.03 27.3468C129.005 27.7503 128.885 28.1422 128.679 28.4899C128.324 29.1216 128.141 29.8354 128.149 30.5599C128.15 30.88 128.056 31.1934 127.879 31.4599C126.083 34.3636 123.55 36.7406 120.539 38.3499C118.649 39.3688 116.594 40.0458 114.469 40.3499C113.147 40.5667 111.806 40.6404 110.469 40.5698C110.209 40.5353 109.952 40.4852 109.699 40.4198C109.699 40.2698 109.699 40.1598 109.699 40.1398C110.279 39.7498 110.749 39.1398 111.549 39.1398C111.738 39.0998 111.916 39.0178 112.069 38.8999C112.282 38.7273 112.509 38.5735 112.749 38.4399C113.469 38.1599 113.849 37.4399 114.459 37.0499C114.476 37.0369 114.491 37.0204 114.501 37.0014C114.511 36.9824 114.517 36.9614 114.519 36.9399C114.579 36.0599 115.319 36.0599 115.889 35.9399C116.113 35.9106 116.327 35.8269 116.512 35.6962C116.697 35.5655 116.847 35.3917 116.949 35.1899C117.359 34.5471 117.66 33.8409 117.839 33.0999C117.901 32.8791 118.044 32.6898 118.239 32.5698C118.474 32.4199 118.654 32.1967 118.75 31.9346C118.845 31.6726 118.852 31.3862 118.769 31.1199C117.719 30.6999 116.689 30.2599 115.639 29.8699C115.243 29.7578 114.838 29.6808 114.429 29.6398C114.307 29.2992 114.167 28.9653 114.009 28.6398C113.919 28.4357 113.768 28.2649 113.576 28.1518C113.384 28.0387 113.161 27.989 112.939 28.0099C112.689 28.0312 112.438 27.9902 112.207 27.8908C111.977 27.7913 111.775 27.6364 111.619 27.4398C111.177 27.0594 110.663 26.7705 110.109 26.5899C109.713 26.4923 109.307 26.4453 108.899 26.4499C108.81 26.4652 108.718 26.4652 108.629 26.4499C107.939 26.2199 107.949 26.2098 107.549 26.8298C107.319 26.6298 107.369 26.3698 107.339 26.1398C107.259 25.5798 106.939 25.3398 106.429 25.4998C106.149 25.5898 105.909 25.6898 105.659 25.4998C105.534 25.3969 105.434 25.267 105.366 25.1197C105.299 24.9725 105.265 24.8118 105.269 24.6499C105.269 24.4899 105.269 24.3299 105.329 24.1699C105.329 23.6999 105.119 23.4598 104.639 23.4098C104.369 23.4098 104.109 23.3098 103.849 23.2498C103.849 22.8698 103.849 22.4898 103.939 22.1098C103.986 21.9555 104.064 21.8125 104.169 21.6898C103.479 21.5098 103.339 21.5599 103.119 21.9899C103.019 22.1799 102.889 22.4798 102.739 22.4998C102.378 22.5622 102.007 22.5205 101.669 22.3799C101.481 22.283 101.314 22.1495 101.178 21.9874C101.043 21.8253 100.94 21.6377 100.878 21.4356C100.816 21.2335 100.794 21.021 100.815 20.8105C100.836 20.6001 100.898 20.3959 100.999 20.2099C101.069 20.0699 101.109 19.9099 101.169 19.7599C101.266 19.4979 101.44 19.2716 101.669 19.1109C101.898 18.9502 102.17 18.8627 102.449 18.8598C102.681 18.8866 102.915 18.8662 103.139 18.7998C103.686 18.5113 104.32 18.4365 104.919 18.5899C105.076 18.6001 105.225 18.6645 105.34 18.7721C105.454 18.8797 105.528 19.0238 105.549 19.1799C105.636 19.4616 105.754 19.7331 105.899 19.9899C105.899 20.0699 106.079 20.0899 106.289 20.1999C106.289 19.9199 106.289 19.7298 106.289 19.5498C106.289 19.3698 106.179 19.1899 106.139 19.0099C105.879 18.0099 105.919 18.0098 106.709 17.4098C107.142 17.1294 107.45 16.6923 107.569 16.1898C107.743 15.4984 108.145 14.8857 108.709 14.4499C108.919 14.269 109.107 14.0643 109.269 13.8399C109.389 13.6563 109.544 13.4988 109.727 13.3768C109.909 13.2548 110.114 13.1708 110.329 13.1299C110.654 13.0225 110.989 12.9488 111.329 12.9099L110.789 13.4199C111.239 13.5799 111.339 13.1899 111.579 13.1299C111.831 13.0788 112.076 12.9983 112.309 12.8898C112.047 12.8713 111.797 12.7787 111.586 12.6229C111.375 12.467 111.213 12.2544 111.119 12.0099L111.369 11.6398C110.909 11.4198 110.519 11.6398 110.129 11.6398C110.129 11.5598 110.129 11.4499 110.199 11.4299C110.707 11.1026 111.306 10.9483 111.909 10.9899C112.088 11.0405 112.275 11.0533 112.46 11.0275C112.644 11.0017 112.821 10.9378 112.979 10.8399C113.119 10.7633 113.271 10.7125 113.429 10.6898C113.959 10.5698 114.029 10.5099 114.029 9.95985C114.029 9.40985 114.029 9.08986 113.579 8.89986C113.393 8.81895 113.189 8.79125 112.989 8.81985C112.329 8.90985 112.339 8.91985 111.989 8.31985C111.829 8.06985 111.629 7.85986 111.419 7.58986L111.029 7.89986C110.946 7.97808 110.845 8.03482 110.735 8.06512C110.625 8.09543 110.509 8.09838 110.398 8.07373C110.286 8.04908 110.183 7.99758 110.096 7.9237C110.009 7.84983 109.941 7.75582 109.899 7.64986C109.794 7.41776 109.624 7.22131 109.409 7.08455C109.194 6.94779 108.944 6.87666 108.689 6.87985H107.689C107.619 7.25985 107.539 7.64985 107.499 8.04985C107.499 8.14985 107.569 8.25985 107.629 8.34985C107.909 8.78985 107.949 8.96985 107.629 9.20985C107.437 9.31558 107.285 9.48149 107.196 9.68205C107.108 9.88261 107.088 10.1067 107.139 10.3199C107.169 10.4074 107.169 10.5023 107.139 10.5899C107.069 10.6999 106.959 10.8398 106.859 10.8598C106.793 10.858 106.729 10.8419 106.67 10.8125C106.611 10.7831 106.56 10.7413 106.519 10.6898C106.415 10.5096 106.34 10.3138 106.299 10.1098C106.089 9.31985 105.999 9.25985 105.139 9.24985C104.725 9.25459 104.314 9.19385 103.919 9.06985C103.762 9.03071 103.617 8.95404 103.496 8.84642C103.375 8.7388 103.282 8.60345 103.225 8.45199C103.168 8.30054 103.148 8.1375 103.168 7.97688C103.188 7.81626 103.247 7.66287 103.339 7.52986C103.427 7.32145 103.564 7.13724 103.738 6.99278C103.912 6.84832 104.118 6.74785 104.339 6.69986C104.522 6.68392 104.698 6.61758 104.846 6.50818C104.994 6.39877 105.11 6.25054 105.179 6.07985C105.234 5.93763 105.337 5.81903 105.471 5.74428C105.604 5.66952 105.759 5.64323 105.909 5.66986C106.069 5.69026 106.231 5.66434 106.376 5.5952C106.522 5.52606 106.644 5.41661 106.729 5.27986C106.349 4.71986 106.179 4.70985 105.729 5.15985C105.564 5.28763 105.386 5.39821 105.199 5.48985L105.069 5.07985C104.809 5.07985 104.579 5.01985 104.339 5.01985C104.208 5.02197 104.081 5.06772 103.979 5.14986C103.824 5.28506 103.683 5.43585 103.559 5.59985C103.359 5.86985 103.149 6.01986 102.799 5.83986C102.666 5.7949 102.522 5.7949 102.389 5.83986C101.669 6.02986 100.939 6.25985 100.219 6.45985C99.8289 6.55985 99.4289 6.62985 99.0389 6.70985L98.9789 6.57985C99.04 6.49221 99.1068 6.40869 99.1789 6.32985C101.49 4.40438 104.236 3.07247 107.179 2.44986C108.193 2.22591 109.223 2.07551 110.259 1.99985C110.953 1.99913 111.645 2.08309 112.319 2.24985C112.534 2.32642 112.731 2.44546 112.899 2.59985C113.209 2.81985 113.509 3.04986 113.899 3.30986C113.749 3.52986 113.259 3.14985 113.149 3.65985L113.859 3.75986C113.76 3.84882 113.673 3.94958 113.599 4.05986C113.516 4.18633 113.481 4.33805 113.499 4.48814C113.517 4.63824 113.588 4.77701 113.699 4.87985C113.976 5.15179 114.23 5.44612 114.459 5.75986C114.632 6.02182 114.871 6.23363 115.152 6.37405C115.433 6.51447 115.745 6.57856 116.059 6.55986C116.235 6.52732 116.416 6.53468 116.59 6.5814C116.763 6.62813 116.923 6.71302 117.059 6.82985C117.123 6.89245 117.206 6.93178 117.295 6.94154C117.384 6.95131 117.474 6.93095 117.55 6.88371C117.626 6.83648 117.684 6.76509 117.714 6.681C117.745 6.5969 117.747 6.50496 117.719 6.41986C117.706 6.08537 117.726 5.75042 117.779 5.41986C117.779 5.02986 117.929 4.86985 118.299 4.84985C118.449 4.84529 118.596 4.80696 118.73 4.73772C118.863 4.66847 118.979 4.57008 119.069 4.44986C119.144 4.33664 119.241 4.2399 119.355 4.16554C119.469 4.09119 119.596 4.04077 119.73 4.01738C119.864 3.99398 120.001 3.99809 120.133 4.02946C120.265 4.06084 120.39 4.11882 120.499 4.19986C123.064 5.55547 125.287 7.47738 126.999 9.81985C127.089 9.94985 127.159 10.0898 127.239 10.2198C126.931 10.3618 126.645 10.547 126.389 10.7699C126.119 11.0599 125.859 11.2398 125.489 11.1098C125.739 11.4498 125.989 11.7598 126.199 12.1098C126.234 12.1743 126.252 12.2465 126.252 12.3199C126.252 12.3932 126.234 12.4654 126.199 12.5299C126.139 12.5763 126.068 12.6078 125.994 12.6217C125.919 12.6356 125.842 12.6315 125.769 12.6098C125.464 12.444 125.11 12.3909 124.769 12.4599C124.919 13.1299 124.659 13.8099 124.979 14.4599C125.207 14.5983 125.466 14.6789 125.733 14.6946C125.999 14.7103 126.266 14.6606 126.509 14.5498L127.189 13.2599L127.989 13.1199L129.229 14.8499C129.339 14.2599 128.819 14.0698 128.669 13.6098C128.827 13.6507 128.972 13.7295 129.092 13.8393C129.212 13.9491 129.304 14.0866 129.359 14.2399C129.619 14.9299 129.869 15.6199 130.079 16.3199C130.095 16.4037 130.091 16.4902 130.067 16.572C130.042 16.6539 129.998 16.7286 129.939 16.7899C129.859 16.8599 129.609 16.8099 129.489 16.7299V16.7399ZM109.599 11.9899L110.119 11.7399L109.699 12.1199L109.599 11.9899Z" fill="#FFFFFF"/>
<path d="M110.43 4.35011C110.052 4.1553 109.642 4.02677 109.22 3.97011C109.071 3.99255 108.919 3.97256 108.781 3.91241C108.643 3.85227 108.525 3.75442 108.44 3.63011L108.13 3.72011C107.73 3.82011 107.3 4.19012 106.95 3.62012C106.95 3.62012 106.83 3.62012 106.76 3.62012C106.29 3.62012 106.06 3.86012 106.03 4.48012L105.56 3.73012L104.82 4.20012C105.1 4.37012 105.27 4.56012 105.45 4.56012C106.02 4.67353 106.61 4.60713 107.14 4.37012C107.284 4.2917 107.452 4.27027 107.61 4.31012C108.198 4.46781 108.748 4.73964 109.23 5.11011C108.89 5.52011 108.66 6.01012 108.01 5.90012C107.91 5.90012 107.79 6.01011 107.68 6.07011C107.84 6.19011 108.02 6.27011 108.13 6.21011C108.328 6.09555 108.558 6.05193 108.784 6.08649C109.009 6.12105 109.216 6.23172 109.37 6.40012C109.812 6.69426 110.342 6.8251 110.87 6.77011L110.37 6.46011C110.7 6.21011 111.04 6.78011 111.37 6.33011L110.37 5.64011C110.418 5.58279 110.477 5.53569 110.544 5.50156C110.61 5.46742 110.683 5.44695 110.758 5.44136C110.832 5.43577 110.907 5.44516 110.978 5.46899C111.049 5.49283 111.114 5.5306 111.17 5.58011C111.62 5.85011 111.69 5.82011 112.17 5.33011L110.36 4.76012L110.43 4.35011Z" fill="#FFFFFF"/>
<path d="M126.137 10.6298C125.735 9.73427 125.157 8.92845 124.438 8.25977C124.438 8.97977 124.957 9.25977 125.167 9.61977C124.997 10.5098 124.997 10.5398 126.137 10.6298Z" fill="#FFFFFF"/>
<path d="M105 21.2101C105.341 21.1486 105.692 21.1604 106.028 21.2449C106.364 21.3294 106.678 21.4846 106.95 21.7001C107.09 21.8077 107.253 21.8831 107.426 21.9211C107.598 21.9591 107.777 21.9588 107.95 21.9201C106.63 21.0601 105.82 20.7001 105 21.2101Z" fill="#FFFFFF"/>
<path d="M108.67 22.0303L108.57 22.5303C109 22.8403 109.43 22.5303 109.91 22.4303C109.757 22.2604 109.562 22.134 109.344 22.0638C109.126 21.9935 108.894 21.982 108.67 22.0303Z" fill="#FFFFFF"/>
<path d="M123.859 9.25972L124.069 9.90971L124.609 9.83972C124.449 8.94972 124.389 8.90972 123.859 9.25972Z" fill="#FFFFFF"/>
</g>
<defs>
<clipPath id="clip0_153_4">
<rect width="226" height="108.41" fill="white"/>
</clipPath>
</defs>
</svg>